<svg xmlns="http://www.w3.org/2000/svg" viewBox="0 0 512 640" x="0px" y="0px"><title>Sad-Emoji-Emotion-Face-Expression-Feeling_1</title><path d="M306.63,60.69c-29.79-8.28-68-12.84-107.69-12.84S121,52.41,91.25,60.69C57.52,70.06,40.42,82.47,40.42,97.58c0,20.24,29.4,28.54,51.51,33,27.47,5.57,65.47,8.64,107,8.64s79.54-3.07,107-8.64c22.11-4.49,51.51-12.79,51.51-33C357.45,82.47,340.35,70.06,306.63,60.69Z"/><path d="M388.29,183.37c-.41,0-.82,0-1.22,0h-.41a10,10,0,0,0-9.78,10V320.62a10,10,0,0,0,9.78,10h.41l1.22,0a73.64,73.64,0,0,0,0-147.28ZM396.88,310V204.06a53.65,53.65,0,0,1,0,105.91Z"/><path d="M396.88,134.6V88.71c0-22.37-21.36-41.63-61.76-55.69-36.53-12.71-84.89-19.71-136.18-19.71S99.29,20.31,62.76,33C22.36,47.08,1,66.34,1,88.71V423.29C1,445.66,22.36,464.92,62.76,479c36.53,12.71,84.89,19.71,136.18,19.71s99.65-7,136.18-19.71c40.4-14.06,61.76-33.32,61.76-55.69V379.42a122.71,122.71,0,0,0,0-244.82Zm-8.59,225.12H387a10,10,0,0,0-10.12,10v53.59c0,12.51-18.07,26.27-48.34,36.8-34.46,12-80.49,18.6-129.6,18.6s-95.14-6.61-129.61-18.6C39.07,449.56,21,435.8,21,423.29V88.71c0-12.51,18.07-26.27,48.33-36.8,34.47-12,80.5-18.6,129.61-18.6s95.14,6.61,129.6,18.6c30.27,10.53,48.34,24.29,48.34,36.8v55.61a10,10,0,0,0,10.12,10h1.29a102.71,102.71,0,0,1,0,205.42Z"/><path d="M143.59,273.65a10,10,0,0,0-10,10,7.56,7.56,0,0,1-15.11,0,10,10,0,0,0-20,0,27.56,27.56,0,0,0,55.11,0A10,10,0,0,0,143.59,273.65Z"/><path d="M280.36,273.65a10,10,0,0,0-10,10,7.56,7.56,0,0,1-15.11,0,10,10,0,0,0-20,0,27.56,27.56,0,0,0,55.11,0A10,10,0,0,0,280.36,273.65Z"/><path d="M237.44,339.7c-.35-1.11-9.13-27.28-43-27.28s-42.67,26.17-43,27.28h0a10.14,10.14,0,0,0-.52,3.18,10,10,0,0,0,19.55,3c.69-1.83,5.78-13.42,24-13.42s23.3,11.59,24,13.42a10,10,0,0,0,19.56-3,9.87,9.87,0,0,0-.53-3.18Z"/><text x="0" y="527" fill="#000000" font-size="5px" font-weight="bold" font-family="'Helvetica Neue', Helvetica, Arial-Unicode, Arial, Sans-serif">Created by AomAm</text><text x="0" y="532" fill="#000000" font-size="5px" font-weight="bold" font-family="'Helvetica Neue', Helvetica, Arial-Unicode, Arial, Sans-serif">from the Noun Project</text></svg>